<svg class="thumb" width="779" height="617" viewBox="0,0,740,450" xmlns="http://www.w3.org/2000/svg" xmlns:inkscape="http://www.inkscape.org/namespaces/inkscape" xmlns:sodipodi="http://sodipodi.sourceforge.net/DTD/sodipodi-0.dtd" xmlns:xlink="http://www.w3.org/1999/xlink" xmlns:ns1="http://www.inkscape.org/namespaces/inkscape" xmlns:sketch="http://www.bohemiancoding.com/sketch/ns"><defs></defs><g><g transform="matrix(16.1739,0,0,16.1739,331.7638,53.5219)"><svg width="16.997296886803472" height="17.005174061742764" viewBox="12.75152587220241,1021.3616650495508,16.997296886803472,17.005174061742764"><defs><linearGradient x1="0" y1="0.5" x2="1" y2="0.5" id="linearGradientSk4rz0zhy27v"><stop offset="0%" stop-color="#c93a3a"></stop><stop offset="100%" stop-color="#c93a3a"></stop></linearGradient></defs><g></g><g><path style="color: rgb(0, 0, 0); font: medium sans-serif; text-indent: 0px; text-align: start; text-decoration: none solid rgb(0, 0, 0); letter-spacing: normal; word-spacing: normal; text-transform: none; direction: ltr; writing-mode: lr-tb; baseline-shift: baseline; text-anchor: start; white-space: normal; clip-rule: nonzero; display: inline; overflow: visible; visibility: visible; opacity: 1; isolation: auto; mix-blend-mode: normal; color-interpolation: srgb; color-interpolation-filters: linearrgb; fill-opacity: 1; fill-rule: evenodd; stroke-width: 0.999991; stroke-linecap: round; stroke-linejoin: round; stroke-miterlimit: 4; stroke-dasharray: none; stroke-dashoffset: 0; stroke-opacity: 1; color-rendering: auto; image-rendering: auto; shape-rendering: auto; text-rendering: auto;" d="m 23.2519,1026.3617 c -3.0319,0 -5.5003,2.4684 -5.5003,5.4999 l 0,0.9961 a 0.50006968,0.50003479 0 1 0 1,0 l 0,-0.9961 c 0,-2.4911 2.0088,-4.4999 4.5003,-4.4999 l 0.9902,0 a 0.50006968,0.50003479 0 1 0 0,-1 z" stroke="none" fill="url('#linearGradientSk4rz0zhy27v')"></path></g></svg></g><g transform="matrix(16.1739,0,0,16.1739,363.8507,89.6958)"><svg width="15.00699688680347" height="15.009074061742922" viewBox="14.741825872202412,1023.3616650495505,15.00699688680347,15.009074061742922"><defs><linearGradient x1="0" y1="0.5" x2="1" y2="0.5" id="linearGradientSk4rz0zhy281"><stop offset="0%" stop-color="#c93a3a"></stop><stop offset="100%" stop-color="#c93a3a"></stop></linearGradient></defs><g></g><g><path style="color: rgb(0, 0, 0); font: medium sans-serif; text-indent: 0px; text-align: start; text-decoration: none solid rgb(0, 0, 0); letter-spacing: normal; word-spacing: normal; text-transform: none; direction: ltr; writing-mode: lr-tb; baseline-shift: baseline; text-anchor: start; white-space: normal; clip-rule: nonzero; display: inline; overflow: visible; visibility: visible; opacity: 1; isolation: auto; mix-blend-mode: normal; color-interpolation: srgb; color-interpolation-filters: linearrgb; fill-opacity: 1; fill-rule: evenodd; stroke-width: 0.999991; stroke-linecap: round; stroke-linejoin: round; stroke-miterlimit: 4; stroke-dasharray: none; stroke-dashoffset: 0; stroke-opacity: 1; color-rendering: auto; image-rendering: auto; shape-rendering: auto; text-rendering: auto;" d="m 23.2421,1028.3617 c -1.9272,0 -3.5002,1.5729 -3.5002,3.4999 l 0,1 a 0.50006968,0.50003479 0 1 0 1,0 l 0,-1 c 0,-1.3866 1.1135,-2.4999 2.5002,-2.4999 l 1,0 a 0.50006968,0.50003479 0 1 0 0,-1 z" stroke="none" fill="url('#linearGradientSk4rz0zhy281')"></path></g></svg></g><g transform="matrix(16.1739,0,0,16.1739,149.8507,0.8697)"><svg width="15.5001" height="13.511390525985348" viewBox="1.4919000000000011,1017.8622094740148,15.5001,13.511390525985348"><defs><linearGradient x1="0" y1="0.5" x2="1" y2="0.5" id="linearGradientSk4rz0zhy287"><stop offset="0%" stop-color="#c93a3a"></stop><stop offset="100%" stop-color="#c93a3a"></stop></linearGradient></defs><g></g><g><path style="color: rgb(0, 0, 0); font: medium sans-serif; text-indent: 0px; text-align: start; text-decoration: none solid rgb(0, 0, 0); letter-spacing: normal; word-spacing: normal; text-transform: none; direction: ltr; writing-mode: lr-tb; baseline-shift: baseline; text-anchor: start; white-space: normal; clip-rule: nonzero; display: inline; overflow: visible; visibility: visible; opacity: 1; isolation: auto; mix-blend-mode: normal; color-interpolation: srgb; color-interpolation-filters: linearrgb; fill-opacity: 1; fill-rule: nonzero; stroke-width: 1; stroke-linecap: butt; stroke-linejoin: round; stroke-miterlimit: 4; stroke-dasharray: none; stroke-dashoffset: 0; stroke-opacity: 1; color-rendering: auto; image-rendering: auto; shape-rendering: auto; text-rendering: auto;" d="m 9.242,1022.8663 c -0.421,-0.042 -0.8532,0.2475 -1.1251,0.498 -0.1014,0.01 -0.01,0.01 -0.125,0.01 -0.8225,0 -1.5,0.6774 -1.5,1.4997 0,0.8223 0.6775,1.4996 1.5,1.4996 l 0,-0.9998 c -0.2821,0 -0.5,-0.2178 -0.5,-0.4998 0,-0.282 0.2179,-0.4999 0.5,-0.4999 0.062,0 0.1208,0.011 0.1738,0.031 0.2417,0.092 0.5136,-0.016 0.6271,-0.248 0.084,-0.1733 0.2566,-0.2828 0.4492,-0.2832 0.1926,4e-4 0.3654,0.1099 0.4492,0.2832 0.1127,0.232 0.3834,0.3403 0.625,0.2499 0.057,-0.021 0.1156,-0.033 0.1757,-0.033 0.2821,0 0.5001,0.2179 0.5001,0.4999 0,0.282 -0.218,0.4998 -0.5001,0.4998 l 0,0.9998 c 0.8226,0 1.5001,-0.6773 1.5001,-1.4996 0,-0.8025 -0.6488,-1.5277 -1.6309,-1.506 -0.2913,-0.3236 -0.7378,-0.5009 -1.1191,-0.5016 z" stroke="none" fill="url('#linearGradientSk4rz0zhy287')"></path></g></svg></g><g transform="matrix(16.1739,0,0,16.1739,133.8073,33.7393)"><svg width="27.251567246609106" height="26.000099999999975" viewBox="0.4918327533908906,1019.8617999999999,27.251567246609106,26.000099999999975"><defs><linearGradient x1="0" y1="0.5" x2="1" y2="0.5" id="linearGradientSk4rz0zhy28d"><stop offset="0%" stop-color="#4ab07d"></stop><stop offset="100%" stop-color="#4ab07d"></stop></linearGradient></defs><g></g><g><path style="color: rgb(0, 0, 0); font: medium sans-serif; text-indent: 0px; text-align: start; text-decoration: none solid rgb(0, 0, 0); letter-spacing: normal; word-spacing: normal; text-transform: none; direction: ltr; writing-mode: lr-tb; baseline-shift: baseline; text-anchor: start; white-space: normal; clip-rule: nonzero; display: inline; overflow: visible; visibility: visible; opacity: 1; isolation: auto; mix-blend-mode: normal; color-interpolation: srgb; color-interpolation-filters: linearrgb; fill-opacity: 1; fill-rule: nonzero; stroke-width: 1; stroke-linecap: round; stroke-linejoin: round; stroke-miterlimit: 4; stroke-dasharray: none; stroke-dashoffset: 0; stroke-opacity: 1; color-rendering: auto; image-rendering: auto; shape-rendering: auto; text-rendering: auto;" d="m 9.2414,1024.8618 c -1.3749,0 -2.5001,1.1251 -2.5001,2.4999 l 0,-0.019 -1.0216,0.6641 a 0.50007415,0.50003926 0 0 0 0.066,0.875 l 0.9552,0.4296 0,0.8007 0,2.75 c 0,4.4123 3.5878,7.9998 8.0003,7.9998 2.2063,0 4.2113,-0.8947 5.6585,-2.3417 a 0.50007415,0.50003926 0 1 0 -0.707,-0.707 c -1.2674,1.2672 -3.0154,2.0487 -4.9515,2.0487 -3.872,0 -7.0003,-3.128 -7.0003,-6.9998 l 0,-2.75 0,-1.1249 a 0.50007415,0.50003926 0 0 0 -0.2949,-0.4551 l -0.4141,-0.1855 0.4824,-0.3145 a 0.50007415,0.50003926 0 0 0 0.2266,-0.4199 l 0,-0.25 c 0,-0.8344 0.6656,-1.5 1.5001,-1.5 0.8344,0 1.5,0.6656 1.5,1.5 l 0,3.4999 c 0,1.3748 1.1253,2.5 2.5002,2.5 l 8.4516,0 c -0.022,0.3067 -0.031,0.6183 -0.092,0.9121 -0.047,0.2279 -0.1038,0.4511 -0.1719,0.6699 a 0.50010166,0.50006676 0 1 0 0.9551,0.2968 c 0.078,-0.2508 0.144,-0.5053 0.1973,-0.7656 0.1072,-0.5214 0.1621,-1.0619 0.1621,-1.6132 a 0.50007415,0.50003926 0 0 0 -0.5,-0.5 l -9.0004,0 c -0.8345,0 -1.5001,-0.6656 -1.5001,-1.5 l 0,-3.4999 c 0,-1.3748 -1.1253,-2.4999 -2.5001,-2.4999 z" stroke="none" fill="url('#linearGradientSk4rz0zhy28d')"></path></g></svg></g><g transform="matrix(16.1739,0,0,16.1739,182.1985,74.0435)"><svg width="11.00000000023537" height="11" viewBox="3.7419999998823137,1022.3625999999999,11.00000000023537,11"><defs><linearGradient x1="0" y1="0.5" x2="1" y2="0.5" id="linearGradientSk4rz0zhy28j"><stop offset="0%" stop-color="#2d3c47"></stop><stop offset="100%" stop-color="#2d3c47"></stop></linearGradient></defs><g></g><g><path style="opacity: 1; fill-opacity: 1; stroke-width: 3.99996; stroke-linecap: round; stroke-linejoin: round; stroke-miterlimit: 4; stroke-dasharray: none; stroke-dashoffset: 0; stroke-opacity: 1;" d="m 9.742,1027.8626 a 0.50002415,0.49998927 0 0 1 -0.5,0.5 0.50002415,0.49998927 0 0 1 -0.5,-0.5 0.50002415,0.49998927 0 0 1 0.5,-0.5 0.50002415,0.49998927 0 0 1 0.5,0.5 z" stroke="none" fill="url('#linearGradientSk4rz0zhy28j')"></path></g></svg></g><g transform="matrix(16.1739,0,0,16.1739,232.7638,194.9566)"><svg width="16.000300000000003" height="12.999900000000025" viewBox="6.632099999999999,1029.3616,16.000300000000003,12.999900000000025"><defs><linearGradient x1="0" y1="0.5" x2="1" y2="0.5" id="linearGradientSk4rz0zhy28p"><stop offset="0%" stop-color="#c93a3a"></stop><stop offset="100%" stop-color="#c93a3a"></stop></linearGradient></defs><g></g><g><path style="color: rgb(0, 0, 0); font: medium sans-serif; text-indent: 0px; text-align: start; text-decoration: none solid rgb(0, 0, 0); letter-spacing: normal; word-spacing: normal; text-transform: none; direction: ltr; writing-mode: lr-tb; baseline-shift: baseline; text-anchor: start; white-space: normal; clip-rule: nonzero; display: inline; overflow: visible; visibility: visible; opacity: 1; isolation: auto; mix-blend-mode: normal; color-interpolation: srgb; color-interpolation-filters: linearrgb; fill-opacity: 1; fill-rule: nonzero; stroke-width: 1; stroke-linecap: butt; stroke-linejoin: round; stroke-miterlimit: 4; stroke-dasharray: none; stroke-dashoffset: 0; stroke-opacity: 1; color-rendering: auto; image-rendering: auto; shape-rendering: auto; text-rendering: auto;" d="m 11.6321,1034.3616 c 0,1.6509 1.3492,2.9999 3.0001,2.9999 1.651,0 3.0002,-1.349 3.0002,-2.9999 l -1.0001,0 c 0,1.1104 -0.8895,1.9999 -2.0001,1.9999 -1.1105,0 -2.0001,-0.8895 -2.0001,-1.9999 z" stroke="none" fill="url('#linearGradientSk4rz0zhy28p')"></path></g></svg></g><g transform="matrix(16.1739,0,0,16.1739,376.1985,219.0435)"><svg width="11.0001" height="11" viewBox="15.7425,1031.3624,11.0001,11"><defs><linearGradient x1="0" y1="0.5" x2="1" y2="0.5" id="linearGradientSk4rz0zhy28v"><stop offset="0%" stop-color="#4ab07d"></stop><stop offset="100%" stop-color="#4ab07d"></stop></linearGradient></defs><g></g><g><path d="m 20.7425,1036.8624 c 0,0.2762 0.2239,0.5 0.5001,0.5 0.2761,0 0.5,-0.2238 0.5,-0.5 0,-0.2763 -0.2239,-0.5 -0.5,-0.5 -0.2762,0 -0.5001,0.2237 -0.5001,0.5 z" style="display: inline; opacity: 1; fill-opacity: 1; stroke-width: 1.00157; stroke-linecap: round; stroke-linejoin: round; stroke-miterlimit: 4; stroke-dasharray: none; stroke-opacity: 1;" stroke="none" fill="url('#linearGradientSk4rz0zhy28v')"></path></g></svg></g><g transform="matrix(16.1739,0,0,16.1739,397.0246,121.8697)"><svg width="13.006896886803467" height="13.009174061742897" viewBox="16.741925872202415,1025.3615650495506,13.006896886803467,13.009174061742897"><defs><linearGradient x1="0" y1="0.5" x2="1" y2="0.5" id="linearGradientSk4rz0zhy291"><stop offset="0%" stop-color="#4ab07d"></stop><stop offset="100%" stop-color="#4ab07d"></stop></linearGradient></defs><g></g><g><path style="color: rgb(0, 0, 0); font: medium sans-serif; text-indent: 0px; text-align: start; text-decoration: none solid rgb(0, 0, 0); letter-spacing: normal; word-spacing: normal; text-transform: none; direction: ltr; writing-mode: lr-tb; baseline-shift: baseline; text-anchor: start; white-space: normal; clip-rule: nonzero; display: inline; overflow: visible; visibility: visible; opacity: 1; isolation: auto; mix-blend-mode: normal; color-interpolation: srgb; color-interpolation-filters: linearrgb; fill-opacity: 1; fill-rule: evenodd; stroke-width: 0.999991; stroke-linecap: round; stroke-linejoin: round; stroke-miterlimit: 4; stroke-dasharray: none; stroke-dashoffset: 0; stroke-opacity: 1; color-rendering: auto; image-rendering: auto; shape-rendering: auto; text-rendering: auto;" d="m 23.2421,1030.3616 c -0.8226,0 -1.5001,0.6775 -1.5001,1.5 l 0,1 a 0.50006968,0.50003479 0 1 0 1,0 l 0,-1 c 0,-0.282 0.2179,-0.5 0.5001,-0.5 l 1,0 a 0.50006968,0.50003479 0 1 0 0,-1 z" stroke="none" fill="url('#linearGradientSk4rz0zhy291')"></path></g></svg></g><g transform="matrix(16.1739,0,0,16.1739,299.5029,19.3479)"><svg width="19.000710711220627" height="19.009024297569113" viewBox="10.741625872202412,1019.3617148137243,19.000710711220627,19.009024297569113"><defs><linearGradient x1="0" y1="0.5" x2="1" y2="0.5" id="linearGradientSk4rz0zhy297"><stop offset="0%" stop-color="#4ab07d"></stop><stop offset="100%" stop-color="#4ab07d"></stop></linearGradient></defs><g></g><g><path style="color: rgb(0, 0, 0); font: medium sans-serif; text-indent: 0px; text-align: start; text-decoration: none solid rgb(0, 0, 0); letter-spacing: normal; word-spacing: normal; text-transform: none; direction: ltr; writing-mode: lr-tb; baseline-shift: baseline; text-anchor: start; white-space: normal; clip-rule: nonzero; display: inline; overflow: visible; visibility: visible; opacity: 1; isolation: auto; mix-blend-mode: normal; color-interpolation: srgb; color-interpolation-filters: linearrgb; fill-opacity: 1; fill-rule: evenodd; stroke-width: 0.999991; stroke-linecap: round; stroke-linejoin: round; stroke-miterlimit: 4; stroke-dasharray: none; stroke-dashoffset: 0; stroke-opacity: 1; color-rendering: auto; image-rendering: auto; shape-rendering: auto; text-rendering: auto;" d="m 23.2421,1024.3618 c -4.1364,0 -7.5004,3.3637 -7.5004,7.4998 l 0,1 a 0.50006968,0.50003479 0 1 0 1,0 l 0,-1 c 0,-3.5956 2.9044,-6.4999 6.5004,-6.4999 l 0.9902,0 a 0.50006968,0.50003479 0 1 0 0,-0.9999 z" stroke="none" fill="url('#linearGradientSk4rz0zhy297')"></path></g></svg></g><g transform="matrix(1.1573,0,0,1.1573,105.2142,385.3)"><svg width="459" height="174" style="overflow: visible;"><defs><linearGradient x1="0" y1="0.5" x2="1" y2="0.5" id="linearGradientSk4rz0zhy2i0"><stop offset="0%" stop-color="#2d3c47"></stop><stop offset="100%" stop-color="#2d3c47"></stop></linearGradient></defs><g><path d="M-188.45-36.3L-188.45-36.3Q-191.25-41.3 -191.25-44.45Q-191.25-47.6 -189.55-48.5L-189.55-48.5Q-183.85-51 -173.9-51Q-163.95-51 -159.85-46.35Q-155.75-41.7 -155.75-32.6L-155.75-32.6L-155.75-16.8L-152.35-16.8Q-150.65-16.8 -149.7-14.8Q-148.75-12.8 -148.75-9.3Q-148.75-5.8 -150.5-2.4Q-152.25 1 -155.25 1L-155.25 1Q-160.65 1 -163.95-1.9L-163.95-1.9Q-165.45-3.1 -166.25-4.8L-166.25-4.8Q-170.85 1 -180.55 1L-180.55 1Q-187.85 1 -192.85-4.2Q-197.85-9.4 -197.85-16.5L-197.85-16.5Q-197.85-32.8 -178.35-32.8L-178.35-32.8L-172.85-32.8L-172.85-33.8Q-172.85-36.4 -173.7-37.15Q-174.55-37.9 -177.65-37.9L-177.65-37.9Q-181.45-37.9 -188.45-36.3ZM-180.45-17.9L-180.45-17.9Q-180.45-15.7 -179.25-14.55Q-178.05-13.4 -176.2-13.4Q-174.35-13.4 -172.85-14.9L-172.85-14.9L-172.85-22.6L-175.65-22.6Q-180.45-22.6 -180.45-17.9ZM-122.15-32.7L-122.15-0.6Q-122.15 0.1 -129.35000000000002 0.1L-129.35000000000002 0.1Q-139.35000000000002-0.2 -139.35000000000002-1L-139.35000000000002-1L-139.35000000000002-33.4L-141.95000000000002-33.4Q-144.55-33.4 -145.35000000000002-37.8L-145.35000000000002-37.8Q-145.55-39.1 -145.55-40.4L-145.55-40.4Q-145.55-43.5 -144.35000000000002-46.6L-144.35000000000002-46.6Q-142.55-51 -138.75-51Q-134.95000000000002-51 -131.95000000000002-49.2Q-128.95000000000002-47.4 -127.95000000000002-45.6L-127.95000000000002-45.6Q-121.65-51 -112.95000000000002-51Q-104.25000000000001-51 -100.35000000000001-46.3Q-96.45000000000002-41.6 -96.45000000000002-30.9L-96.45000000000002-30.9L-96.45000000000002-0.9Q-96.45000000000002 0.3 -105.00000000000001 0.3Q-113.55000000000001 0.3 -113.55000000000001-0.9L-113.55000000000001-0.9L-113.55000000000001-29.8Q-113.55000000000001-34.8 -117.05000000000001-34.8L-117.05000000000001-34.8Q-118.05000000000001-34.8 -119.85000000000001-33.95Q-121.65-33.1 -122.15-32.7L-122.15-32.7ZM-42.65000000000002-32.6L-42.65000000000002-0.5Q-42.65000000000002 0.2 -51.20000000000002 0.2Q-59.750000000000014 0.2 -59.750000000000014-0.7L-59.750000000000014-0.7L-59.750000000000014-29.8Q-59.750000000000014-34.8 -63.05000000000002-34.8L-63.05000000000002-34.8Q-64.75000000000001-34.8 -67.55000000000001-32.6L-67.55000000000001-32.6L-67.55000000000001-0.6Q-67.55000000000001 0.4 -76.10000000000002 0.4Q-84.65000000000002 0.4 -84.65000000000002-0.7L-84.65000000000002-0.7L-84.65000000000002-33.4L-87.15000000000002-33.4Q-90.45000000000002-33.4 -90.45000000000002-40.3L-90.45000000000002-40.3Q-90.45000000000002-43.4 -89.25000000000001-46.6L-89.25000000000001-46.6Q-87.65000000000002-51 -84.05000000000001-51Q-80.45000000000002-51 -77.10000000000002-49.1Q-73.75000000000001-47.2 -73.05000000000001-45.5L-73.05000000000001-45.5Q-66.85000000000002-51 -59.30000000000002-51Q-51.750000000000014-51 -47.15000000000002-46.3L-47.15000000000002-46.3Q-41.750000000000014-51 -34.15000000000002-51L-34.15000000000002-51Q-17.65000000000002-51 -17.65000000000002-30.9L-17.65000000000002-30.9L-17.65000000000002-0.5Q-17.65000000000002 0.2 -26.200000000000017 0.2Q-34.750000000000014 0.2 -34.750000000000014-0.7L-34.750000000000014-0.7L-34.750000000000014-29.8Q-34.750000000000014-34.8 -38.05000000000002-34.8L-38.05000000000002-34.8Q-39.850000000000016-34.8 -42.65000000000002-32.6L-42.65000000000002-32.6ZM 9.149999999999979-49.7L 9.149999999999979-0.6Q 9.149999999999979 0.2 -2.1316282072803006e-14 0.2Q-9.150000000000022 0.2 -9.150000000000022-0.5L-9.150000000000022-0.5L-9.150000000000022-49.6Q-9.150000000000022-50.3 -2.1316282072803006e-14-50.3Q 9.149999999999979-50.3  9.149999999999979-49.7L 9.149999999999979-49.7ZM 9.149999999999979-70.3L 9.149999999999979-55.6Q 9.149999999999979-54.9 -2.1316282072803006e-14-54.9Q-9.150000000000022-54.9 -9.150000000000022-55.5L-9.150000000000022-55.5L-9.150000000000022-69.9Q-9.150000000000022-70.9 -2.1316282072803006e-14-70.9Q 9.149999999999979-70.9  9.149999999999979-70.3L 9.149999999999979-70.3ZM 39.04999999999997-32.7L 39.04999999999997-0.6Q 39.04999999999997 0.1  31.849999999999973 0.1L 31.849999999999973 0.1Q 21.849999999999973-0.2  21.849999999999973-1L 21.849999999999973-1L 21.849999999999973-33.4L 19.24999999999997-33.4Q 16.649999999999974-33.4  15.849999999999973-37.8L 15.849999999999973-37.8Q 15.649999999999974-39.1  15.649999999999974-40.4L 15.649999999999974-40.4Q 15.649999999999974-43.5  16.849999999999973-46.6L 16.849999999999973-46.6Q 18.649999999999974-51  22.449999999999974-51Q 26.24999999999997-51  29.24999999999997-49.2Q 32.24999999999997-47.4  33.24999999999997-45.6L 33.24999999999997-45.6Q 39.54999999999997-51  48.24999999999997-51Q 56.949999999999974-51  60.84999999999998-46.3Q 64.74999999999997-41.6  64.74999999999997-30.9L 64.74999999999997-30.9L 64.74999999999997-0.9Q 64.74999999999997 0.3  56.199999999999974 0.3Q 47.64999999999998 0.3  47.64999999999998-0.9L 47.64999999999998-0.9L 47.64999999999998-29.8Q 47.64999999999998-34.8  44.14999999999998-34.8L 44.14999999999998-34.8Q 43.14999999999998-34.8  41.34999999999997-33.95Q 39.54999999999997-33.1  39.04999999999997-32.7L 39.04999999999997-32.7ZM 79.54999999999994-36.3L 79.54999999999994-36.3Q 76.74999999999994-41.3  76.74999999999994-44.45Q 76.74999999999994-47.6  78.44999999999995-48.5L 78.44999999999995-48.5Q 84.14999999999995-51  94.09999999999994-51Q 104.04999999999994-51  108.14999999999995-46.35Q 112.24999999999994-41.7  112.24999999999994-32.6L 112.24999999999994-32.6L 112.24999999999994-16.8L 115.64999999999995-16.8Q 117.34999999999994-16.8  118.29999999999994-14.8Q 119.24999999999994-12.8  119.24999999999994-9.3Q 119.24999999999994-5.8  117.49999999999994-2.4Q 115.74999999999994 1  112.74999999999994 1L 112.74999999999994 1Q 107.34999999999994 1  104.04999999999994-1.9L 104.04999999999994-1.9Q 102.54999999999994-3.1  101.74999999999994-4.8L 101.74999999999994-4.8Q 97.14999999999995 1  87.44999999999995 1L 87.44999999999995 1Q 80.14999999999995 1  75.14999999999995-4.2Q 70.14999999999995-9.4  70.14999999999995-16.5L 70.14999999999995-16.5Q 70.14999999999995-32.8  89.64999999999995-32.8L 89.64999999999995-32.8L 95.14999999999995-32.8L 95.14999999999995-33.8Q 95.14999999999995-36.4  94.29999999999994-37.15Q 93.44999999999995-37.9  90.34999999999994-37.9L 90.34999999999994-37.9Q 86.54999999999994-37.9  79.54999999999994-36.3ZM 87.54999999999994-17.9L 87.54999999999994-17.9Q 87.54999999999994-15.7  88.74999999999994-14.55Q 89.94999999999995-13.4  91.79999999999994-13.4Q 93.64999999999995-13.4  95.14999999999995-14.9L 95.14999999999995-14.9L 95.14999999999995-22.6L 92.34999999999994-22.6Q 87.54999999999994-22.6  87.54999999999994-17.9ZM 170.25-32.6L 170.25-0.5Q 170.25 0.2  161.7 0.2Q 153.14999999999998 0.2  153.14999999999998-0.7L 153.14999999999998-0.7L 153.14999999999998-29.8Q 153.14999999999998-34.8  149.85-34.8L 149.85-34.8Q 148.14999999999998-34.8  145.35-32.6L 145.35-32.6L 145.35-0.6Q 145.35 0.4  136.79999999999998 0.4Q 128.25 0.4  128.25-0.7L 128.25-0.7L 128.25-33.4L 125.74999999999999-33.4Q 122.44999999999999-33.4  122.44999999999999-40.3L 122.44999999999999-40.3Q 122.44999999999999-43.4  123.64999999999999-46.6L 123.64999999999999-46.6Q 125.24999999999999-51  128.85-51Q 132.45-51  135.79999999999998-49.1Q 139.14999999999998-47.2  139.85-45.5L 139.85-45.5Q 146.04999999999998-51  153.6-51Q 161.14999999999998-51  165.75-46.3L 165.75-46.3Q 171.14999999999998-51  178.75-51L 178.75-51Q 195.25-51  195.25-30.9L 195.25-30.9L 195.25-0.5Q 195.25 0.2  186.7 0.2Q 178.14999999999998 0.2  178.14999999999998-0.7L 178.14999999999998-0.7L 178.14999999999998-29.8Q 178.14999999999998-34.8  174.85-34.8L 174.85-34.8Q 173.04999999999998-34.8  170.25-32.6L 170.25-32.6Z" data-textpath="anminam" data-text-anchor="middle" data-font-size="100" data-letterspacing="0" data-side="left" data-offset="0" data-dx="0" data-dy="85.5" data-xmlspace="preserve" data-href="" data-font="Lilita One" data-font-src="/Content/clientfonts/lilitaone.woff" data-font-scale="contain" transform="translate(229.5,85.5)" data-x="229.5" data-y="0" fill="url('#linearGradientSk4rz0zhy2i0')"></path></g></svg></g><g transform="matrix(1.1573,0,0,1.1573,214.5772,486.085)"><svg width="0" height="174" style="overflow: visible;"><defs><linearGradient x1="0" y1="0.5" x2="1" y2="0.5" id="linearGradientSk4rz0zhy2i3"><stop offset="0%" stop-color="#2d3c47"></stop><stop offset="100%" stop-color="#2d3c47"></stop></linearGradient></defs><g><path d="" data-textpath="" data-text-anchor="middle" data-font-size="100" data-letterspacing="0" data-side="left" data-offset="0" data-dx="0" data-dy="85.5" data-xmlspace="preserve" data-href="" data-font="Lilita One" data-font-src="/Content/clientfonts/lilitaone.woff" data-font-scale="contain" transform="translate(135,85.5)" data-x="135" data-y="0" fill="url('#linearGradientSk4rz0zhy2i3')"></path></g></svg></g></g></svg>